<?xml version="1.0" standalone="no"?><svg xmlns:xlink="http://www.w3.org/1999/xlink" xmlns="http://www.w3.org/2000/svg" viewBox="0 0 1200 666.6753772783694" preserveAspectRatio="xMaxYMax slice"><g transform="scale(1.567910106487228)"><rect x="0" y="0" width="765.36" height="425.20000000000005" fill="#ffffff"/><rect x="0" y="0" width="85.04" height="85.04" fill="#ecfbdd"/><polygon points="85.04,0 85.04,85.04 0,85.04" fill="#e4f9d0"/><rect x="85.04" y="0" width="85.04" height="85.04" fill="#ffffff"/><rect x="85.04" y="0" width="42.52" height="42.52" fill="#21623f"/><polygon points="85.04,0 127.56,42.52 85.04,42.52" fill="#dee8e3"/><rect x="127.56" y="0" width="42.52" height="42.52" fill="#b0c7bb"/><polygon points="127.56,0 170.08,0 170.08,42.52" fill="#ddf8c3"/><rect x="85.04" y="42.52" width="42.52" height="42.52" fill="#286745"/><polygon points="85.04,42.52 127.56,42.52 127.56,85.04" fill="#c2d4cb"/><rect x="127.56" y="42.52" width="42.52" height="42.52" fill="#618f76"/><polygon points="170.08,42.52 170.08,85.04 127.56,85.04" fill="#b4ef79"/><rect x="170.08" y="0" width="85.04" height="85.04" fill="#ffffff"/><rect x="170.08" y="0" width="42.52" height="42.52" fill="#618f77"/><polygon points="212.60000000000002,0 212.60000000000002,42.52 170.08,42.52" fill="#99e94a"/><rect x="212.6" y="0" width="42.52" height="42.52" fill="#cdf4a6"/><polygon points="255.12,0 255.12,42.52 212.6,42.52" fill="#467d60"/><rect x="170.08" y="42.52" width="42.52" height="42.52" fill="#d9e4de"/><polygon points="212.60000000000002,42.52 212.60000000000002,85.04 170.08,85.04" fill="#1a5d39"/><rect x="212.6" y="42.52" width="42.52" height="42.52" fill="#caf4a1"/><polygon points="255.12,42.52 255.12,85.04 212.6,85.04" fill="#9cea4f"/><rect x="255.12" y="0" width="85.04" height="85.04" fill="#e0f8c8"/><polygon points="255.12,0 340.16,85.04 255.12,85.04" fill="#d6e2db"/><rect x="340.16" y="0" width="85.04" height="85.04" fill="#ffffff"/><rect x="340.16" y="0" width="42.52" height="42.52" fill="#c0d3c9"/><polygon points="340.16,0 382.68,42.52 340.16,42.52" fill="#87e529"/><rect x="382.68" y="0" width="42.52" height="42.52" fill="#b5cbbf"/><polygon points="382.68,0 425.2,42.52 382.68,42.52" fill="#eef3f1"/><rect x="340.16" y="42.52" width="42.52" height="42.52" fill="#ddf8c2"/><polygon points="340.16,42.52 382.68,42.52 340.16,85.04" fill="#fcfef9"/><rect x="382.68" y="42.52" width="42.52" height="42.52" fill="#447b5d"/><polygon points="382.68,42.52 425.2,42.52 425.2,85.04" fill="#98b7a6"/><rect x="425.20000000000005" y="0" width="85.04" height="85.04" fill="#ffffff"/><rect x="425.2" y="0" width="42.52" height="42.52" fill="#f5fdee"/><polygon points="425.2,0 467.71999999999997,42.52 425.2,42.52" fill="#d0f5ab"/><rect x="467.72" y="0" width="42.52" height="42.52" fill="#dbf7be"/><polygon points="467.72,0 510.24,42.52 467.72,42.52" fill="#1b5e3a"/><rect x="425.2" y="42.52" width="42.52" height="42.52" fill="#91b1a0"/><polygon points="467.71999999999997,42.52 467.71999999999997,85.04 425.2,85.04" fill="#f9fef4"/><rect x="467.72" y="42.52" width="42.52" height="42.52" fill="#ebf1ee"/><polygon points="510.24,42.52 510.24,85.04 467.72,85.04" fill="#b7ccc1"/><rect x="510.24" y="0" width="85.04" height="85.04" fill="#d4f6b2"/><polygon points="510.24,0 595.28,85.04 510.24,85.04" fill="#b2ee77"/><rect x="595.28" y="0" width="85.04" height="85.04" fill="#5a8b71"/><polygon points="595.28,0 680.3199999999999,0 680.3199999999999,85.04" fill="#236441"/><rect x="680.32" y="0" width="85.04" height="85.04" fill="#ffffff"/><rect x="680.32" y="0" width="42.52" height="42.52" fill="#4b8064"/><polygon points="722.84,0 722.84,42.52 680.32,42.52" fill="#aaed67"/><rect x="722.84" y="0" width="42.52" height="42.52" fill="#9ae94a"/><polygon points="765.36,0 765.36,42.52 722.84,42.52" fill="#5c8c72"/><rect x="680.32" y="42.52" width="42.52" height="42.52" fill="#306d4d"/><polygon points="680.32,42.52 722.84,85.04 680.32,85.04" fill="#72e004"/><rect x="722.84" y="42.52" width="42.52" height="42.52" fill="#f7fdf1"/><polygon points="722.84,42.52 765.36,42.52 722.84,85.04" fill="#b3ee77"/><rect x="0" y="85.04" width="85.04" height="85.04" fill="#ffffff"/><rect x="0" y="85.04" width="42.52" height="42.52" fill="#a1bdae"/><polygon points="0,85.04 42.52,127.56 0,127.56" fill="#d6f6b6"/><rect x="42.52" y="85.04" width="42.52" height="42.52" fill="#256543"/><polygon points="42.52,85.04 85.04,85.04 85.04,127.56" fill="#135934"/><rect x="0" y="127.56" width="42.52" height="42.52" fill="#b3ef78"/><polygon points="42.52,127.56 42.52,170.08 0,170.08" fill="#a5bfb1"/><rect x="42.52" y="127.56" width="42.52" height="42.52" fill="#e9fad7"/><polygon points="42.52,127.56 85.04,127.56 42.52,170.08" fill="#dce6e1"/><rect x="85.04" y="85.04" width="85.04" height="85.04" fill="#ffffff"/><rect x="85.04" y="85.04" width="42.52" height="42.52" fill="#cbf4a3"/><polygon points="127.56,85.04 127.56,127.56 85.04,127.56" fill="#e9efec"/><rect x="127.56" y="85.04" width="42.52" height="42.52" fill="#d6f6b6"/><polygon points="127.56,85.04 170.08,85.04 127.56,127.56" fill="#93b3a2"/><rect x="85.04" y="127.56" width="42.52" height="42.52" fill="#457c5e"/><polygon points="85.04,127.56 127.56,170.08 85.04,170.08" fill="#69957d"/><rect x="127.56" y="127.56" width="42.52" height="42.52" fill="#f8faf9"/><polygon points="170.08,127.56 170.08,170.08 127.56,170.08" fill="#8fb09f"/><rect x="170.08" y="85.04" width="85.04" height="85.04" fill="#ffffff"/><rect x="170.08" y="85.04" width="42.52" height="42.52" fill="#aaed68"/><polygon points="170.08,85.04 212.60000000000002,127.56 170.08,127.56" fill="#bbf085"/><rect x="212.6" y="85.04" width="42.52" height="42.52" fill="#c0d2c8"/><polygon points="212.6,85.04 255.12,127.56 212.6,127.56" fill="#70e001"/><rect x="170.08" y="127.56" width="42.52" height="42.52" fill="#f4fdec"/><polygon points="212.60000000000002,127.56 212.60000000000002,170.08 170.08,170.08" fill="#b0ee72"/><rect x="212.6" y="127.56" width="42.52" height="42.52" fill="#a5eb5e"/><polygon points="212.6,127.56 255.12,127.56 212.6,170.08" fill="#195c38"/><rect x="255.12" y="85.04" width="85.04" height="85.04" fill="#c5f298"/><polygon points="255.12,85.04 340.16,85.04 255.12,170.08" fill="#7ae212"/><rect x="340.16" y="85.04" width="85.04" height="85.04" fill="#ffffff"/><rect x="340.16" y="85.04" width="42.52" height="42.52" fill="#7da38f"/><polygon points="382.68,85.04 382.68,127.56 340.16,127.56" fill="#b2ee75"/><rect x="382.68" y="85.04" width="42.52" height="42.52" fill="#4b8064"/><polygon points="382.68,85.04 425.2,85.04 425.2,127.56" fill="#b8f080"/><rect x="340.16" y="127.56" width="42.52" height="42.52" fill="#bcd0c5"/><polygon points="340.16,127.56 382.68,127.56 382.68,170.08" fill="#c7f39c"/><rect x="382.68" y="127.56" width="42.52" height="42.52" fill="#ccf4a3"/><polygon points="425.2,127.56 425.2,170.08 382.68,170.08" fill="#f6f8f7"/><rect x="425.20000000000005" y="85.04" width="85.04" height="85.04" fill="#ffffff"/><rect x="425.2" y="85.04" width="42.52" height="42.52" fill="#467d60"/><polygon points="467.71999999999997,85.04 467.71999999999997,127.56 425.2,127.56" fill="#96e844"/><rect x="467.72" y="85.04" width="42.52" height="42.52" fill="#a9c2b5"/><polygon points="467.72,85.04 510.24,85.04 467.72,127.56" fill="#b3cabe"/><rect x="425.2" y="127.56" width="42.52" height="42.52" fill="#78e20d"/><polygon points="425.2,127.56 467.71999999999997,170.08 425.2,170.08" fill="#387353"/><rect x="467.72" y="127.56" width="42.52" height="42.52" fill="#fcfdfc"/><polygon points="467.72,127.56 510.24,127.56 467.72,170.08" fill="#d4e1da"/><rect x="510.24" y="85.04" width="85.04" height="85.04" fill="#ffffff"/><rect x="510.24" y="85.04" width="42.52" height="42.52" fill="#9cea4f"/><polygon points="510.24,85.04 552.76,85.04 552.76,127.56" fill="#c8f39d"/><rect x="552.76" y="85.04" width="42.52" height="42.52" fill="#72e003"/><polygon points="552.76,85.04 595.28,85.04 595.28,127.56" fill="#84e424"/><rect x="510.24" y="127.56" width="42.52" height="42.52" fill="#acc5b8"/><polygon points="510.24,127.56 552.76,170.08 510.24,170.08" fill="#b9cec3"/><rect x="552.76" y="127.56" width="42.52" height="42.52" fill="#e9fad7"/><polygon points="552.76,127.56 595.28,170.08 552.76,170.08" fill="#c6f39a"/><rect x="595.2800000000001" y="85.04" width="85.04" height="85.04" fill="#ffffff"/><rect x="595.28" y="85.04" width="42.52" height="42.52" fill="#a4eb5c"/><polygon points="595.28,85.04 637.8,127.56 595.28,127.56" fill="#7de316"/><rect x="637.8" y="85.04" width="42.52" height="42.52" fill="#b2c8bc"/><polygon points="680.3199999999999,85.04 680.3199999999999,127.56 637.8,127.56" fill="#a2bdaf"/><rect x="595.28" y="127.56" width="42.52" height="42.52" fill="#a9ec65"/><polygon points="637.8,127.56 637.8,170.08 595.28,170.08" fill="#3b7556"/><rect x="637.8" y="127.56" width="42.52" height="42.52" fill="#66937b"/><polygon points="680.3199999999999,127.56 680.3199999999999,170.08 637.8,170.08" fill="#09512a"/><rect x="680.32" y="85.04" width="85.04" height="85.04" fill="#ccdbd3"/><polygon points="680.32,85.04 765.36,170.08 680.32,170.08" fill="#0e552f"/><rect x="0" y="170.08" width="85.04" height="85.04" fill="#ffffff"/><rect x="0" y="170.08" width="42.52" height="42.52" fill="#4c8165"/><polygon points="42.52,170.08 42.52,212.60000000000002 0,212.60000000000002" fill="#639178"/><rect x="42.52" y="170.08" width="42.52" height="42.52" fill="#c5f398"/><polygon points="85.04,170.08 85.04,212.60000000000002 42.52,212.60000000000002" fill="#2a6947"/><rect x="0" y="212.6" width="42.52" height="42.52" fill="#1c5f3c"/><polygon points="42.52,212.6 42.52,255.12 0,255.12" fill="#bff18d"/><rect x="42.52" y="212.6" width="42.52" height="42.52" fill="#ccdbd3"/><polygon points="42.52,212.6 85.04,255.12 42.52,255.12" fill="#a1eb57"/><rect x="85.04" y="170.08" width="85.04" height="85.04" fill="#ffffff"/><rect x="85.04" y="170.08" width="42.52" height="42.52" fill="#739c86"/><polygon points="127.56,170.08 127.56,212.60000000000002 85.04,212.60000000000002" fill="#9ae94a"/><rect x="127.56" y="170.08" width="42.52" height="42.52" fill="#f3f6f4"/><polygon points="127.56,170.08 170.08,170.08 170.08,212.60000000000002" fill="#8fb09e"/><rect x="85.04" y="212.6" width="42.52" height="42.52" fill="#f2fce8"/><polygon points="85.04,212.6 127.56,212.6 85.04,255.12" fill="#91e73b"/><rect x="127.56" y="212.6" width="42.52" height="42.52" fill="#aeee6f"/><polygon points="127.56,212.6 170.08,212.6 127.56,255.12" fill="#77e10c"/><rect x="170.08" y="170.08" width="85.04" height="85.04" fill="#d5f6b5"/><polygon points="170.08,170.08 255.12,170.08 170.08,255.12" fill="#759d88"/><rect x="255.12" y="170.08" width="85.04" height="85.04" fill="#e6fad2"/><polygon points="340.16,170.08 340.16,255.12 255.12,255.12" fill="#cdf4a6"/><rect x="340.16" y="170.08" width="85.04" height="85.04" fill="#ffffff"/><rect x="340.16" y="170.08" width="42.52" height="42.52" fill="#336f4f"/><polygon points="340.16,170.08 382.68,170.08 340.16,212.60000000000002" fill="#fbfef9"/><rect x="382.68" y="170.08" width="42.52" height="42.52" fill="#c0d3c9"/><polygon points="425.2,170.08 425.2,212.60000000000002 382.68,212.60000000000002" fill="#075029"/><rect x="340.16" y="212.6" width="42.52" height="42.52" fill="#84e424"/><polygon points="340.16,212.6 382.68,212.6 340.16,255.12" fill="#cff5a9"/><rect x="382.68" y="212.6" width="42.52" height="42.52" fill="#759e88"/><polygon points="382.68,212.6 425.2,255.12 382.68,255.12" fill="#e5ede8"/><rect x="425.2" y="170.08" width="85.04" height="85.04" fill="#c7f39a"/><polygon points="425.2,170.08 510.24,170.08 510.24,255.12" fill="#3e7758"/><rect x="510.24" y="170.08" width="85.04" height="85.04" fill="#ffffff"/><rect x="510.24" y="170.08" width="42.52" height="42.52" fill="#226341"/><polygon points="510.24,170.08 552.76,212.60000000000002 510.24,212.60000000000002" fill="#fcfdfd"/><rect x="552.76" y="170.08" width="42.52" height="42.52" fill="#c2d4cb"/><polygon points="595.28,170.08 595.28,212.60000000000002 552.76,212.60000000000002" fill="#d2dfd8"/><rect x="510.24" y="212.6" width="42.52" height="42.52" fill="#b4ef79"/><polygon points="510.24,212.6 552.76,255.12 510.24,255.12" fill="#ecfbdd"/><rect x="552.76" y="212.6" width="42.52" height="42.52" fill="#f9fef4"/><polygon points="552.76,212.6 595.28,212.6 595.28,255.12" fill="#306d4d"/><rect x="595.2800000000001" y="170.08" width="85.04" height="85.04" fill="#ffffff"/><rect x="595.28" y="170.08" width="42.52" height="42.52" fill="#aeed6e"/><polygon points="595.28,170.08 637.8,170.08 637.8,212.60000000000002" fill="#73e105"/><rect x="637.8" y="170.08" width="42.52" height="42.52" fill="#e3f9cd"/><polygon points="637.8,170.08 680.3199999999999,212.60000000000002 637.8,212.60000000000002" fill="#caf4a1"/><rect x="595.28" y="212.6" width="42.52" height="42.52" fill="#a5c0b2"/><polygon points="595.28,212.6 637.8,212.6 595.28,255.12" fill="#7be213"/><rect x="637.8" y="212.6" width="42.52" height="42.52" fill="#72e104"/><polygon points="637.8,212.6 680.3199999999999,212.6 637.8,255.12" fill="#e9fad9"/><rect x="680.32" y="170.08" width="85.04" height="85.04" fill="#ffffff"/><rect x="680.32" y="170.08" width="42.52" height="42.52" fill="#97b6a6"/><polygon points="722.84,170.08 722.84,212.60000000000002 680.32,212.60000000000002" fill="#bdf189"/><rect x="722.84" y="170.08" width="42.52" height="42.52" fill="#93b3a2"/><polygon points="722.84,170.08 765.36,170.08 722.84,212.60000000000002" fill="#81e41f"/><rect x="680.32" y="212.6" width="42.52" height="42.52" fill="#83e421"/><polygon points="680.32,212.6 722.84,255.12 680.32,255.12" fill="#effce3"/><rect x="722.84" y="212.6" width="42.52" height="42.52" fill="#b4ef7a"/><polygon points="765.36,212.6 765.36,255.12 722.84,255.12" fill="#f5fded"/><rect x="0" y="255.12" width="85.04" height="85.04" fill="#9ab8a8"/><polygon points="0,255.12 85.04,255.12 85.04,340.16" fill="#e4f9ce"/><rect x="85.04" y="255.12" width="85.04" height="85.04" fill="#b1ee74"/><polygon points="85.04,255.12 170.08,255.12 170.08,340.16" fill="#d9f7bb"/><rect x="170.08" y="255.12" width="85.04" height="85.04" fill="#fbfef7"/><polygon points="255.12,255.12 255.12,340.16 170.08,340.16" fill="#256543"/><rect x="255.12" y="255.12" width="85.04" height="85.04" fill="#ffffff"/><rect x="255.12" y="255.12" width="42.52" height="42.52" fill="#84e425"/><polygon points="255.12,255.12 297.64,255.12 297.64,297.64" fill="#fafef6"/><rect x="297.64" y="255.12" width="42.52" height="42.52" fill="#e1eae5"/><polygon points="297.64,255.12 340.15999999999997,255.12 297.64,297.64" fill="#b6ef7c"/><rect x="255.12" y="297.64" width="42.52" height="42.52" fill="#b7ef7f"/><polygon points="297.64,297.64 297.64,340.15999999999997 255.12,340.15999999999997" fill="#e1f8c9"/><rect x="297.64" y="297.64" width="42.52" height="42.52" fill="#d7e2dc"/><polygon points="297.64,297.64 340.15999999999997,297.64 340.15999999999997,340.15999999999997" fill="#8aac9a"/><rect x="340.16" y="255.12" width="85.04" height="85.04" fill="#ffffff"/><rect x="340.16" y="255.12" width="42.52" height="42.52" fill="#87e529"/><polygon points="340.16,255.12 382.68,255.12 382.68,297.64" fill="#316e4d"/><rect x="382.68" y="255.12" width="42.52" height="42.52" fill="#c0d2c9"/><polygon points="382.68,255.12 425.2,255.12 425.2,297.64" fill="#e3ebe7"/><rect x="340.16" y="297.64" width="42.52" height="42.52" fill="#175b37"/><polygon points="340.16,297.64 382.68,297.64 382.68,340.15999999999997" fill="#9ce94e"/><rect x="382.68" y="297.64" width="42.52" height="42.52" fill="#d3e0d9"/><polygon points="382.68,297.64 425.2,297.64 382.68,340.15999999999997" fill="#044e26"/><rect x="425.20000000000005" y="255.12" width="85.04" height="85.04" fill="#ffffff"/><rect x="425.2" y="255.12" width="42.52" height="42.52" fill="#357051"/><polygon points="425.2,255.12 467.71999999999997,255.12 425.2,297.64" fill="#d3f6b1"/><rect x="467.72" y="255.12" width="42.52" height="42.52" fill="#79a18c"/><polygon points="510.24,255.12 510.24,297.64 467.72,297.64" fill="#d8e4dd"/><rect x="425.2" y="297.64" width="42.52" height="42.52" fill="#aec6b9"/><polygon points="467.71999999999997,297.64 467.71999999999997,340.15999999999997 425.2,340.15999999999997" fill="#fdfdfd"/><rect x="467.72" y="297.64" width="42.52" height="42.52" fill="#c8d9d0"/><polygon points="467.72,297.64 510.24,297.64 510.24,340.15999999999997" fill="#7da48f"/><rect x="510.24" y="255.12" width="85.04" height="85.04" fill="#ffffff"/><rect x="510.24" y="255.12" width="42.52" height="42.52" fill="#f7fdf1"/><polygon points="552.76,255.12 552.76,297.64 510.24,297.64" fill="#769e88"/><rect x="552.76" y="255.12" width="42.52" height="42.52" fill="#8ce631"/><polygon points="552.76,255.12 595.28,255.12 552.76,297.64" fill="#8ae62e"/><rect x="510.24" y="297.64" width="42.52" height="42.52" fill="#97e846"/><polygon points="510.24,297.64 552.76,340.15999999999997 510.24,340.15999999999997" fill="#a3eb5a"/><rect x="552.76" y="297.64" width="42.52" height="42.52" fill="#f5f8f6"/><polygon points="552.76,297.64 595.28,297.64 552.76,340.15999999999997" fill="#326e4e"/><rect x="595.2800000000001" y="255.12" width="85.04" height="85.04" fill="#ffffff"/><rect x="595.28" y="255.12" width="42.52" height="42.52" fill="#79e210"/><polygon points="595.28,255.12 637.8,297.64 595.28,297.64" fill="#7ae212"/><rect x="637.8" y="255.12" width="42.52" height="42.52" fill="#cdf4a5"/><polygon points="637.8,255.12 680.3199999999999,255.12 680.3199999999999,297.64" fill="#246542"/><rect x="595.28" y="297.64" width="42.52" height="42.52" fill="#a6c0b2"/><polygon points="595.28,297.64 637.8,340.15999999999997 595.28,340.15999999999997" fill="#7de317"/><rect x="637.8" y="297.64" width="42.52" height="42.52" fill="#cedcd4"/><polygon points="637.8,297.64 680.3199999999999,297.64 680.3199999999999,340.15999999999997" fill="#497e62"/><rect x="680.32" y="255.12" width="85.04" height="85.04" fill="#ffffff"/><rect x="680.32" y="255.12" width="42.52" height="42.52" fill="#87ab98"/><polygon points="722.84,255.12 722.84,297.64 680.32,297.64" fill="#85e526"/><rect x="722.84" y="255.12" width="42.52" height="42.52" fill="#84e424"/><polygon points="722.84,255.12 765.36,255.12 722.84,297.64" fill="#f0f4f2"/><rect x="680.32" y="297.64" width="42.52" height="42.52" fill="#89ac99"/><polygon points="722.84,297.64 722.84,340.15999999999997 680.32,340.15999999999997" fill="#88ab98"/><rect x="722.84" y="297.64" width="42.52" height="42.52" fill="#7da48f"/><polygon points="722.84,297.64 765.36,297.64 722.84,340.15999999999997" fill="#bdf189"/><rect x="0" y="340.16" width="85.04" height="85.04" fill="#ffffff"/><rect x="0" y="340.16" width="42.52" height="42.52" fill="#2d6a49"/><polygon points="42.52,340.16 42.52,382.68 0,382.68" fill="#9ae94a"/><rect x="42.52" y="340.16" width="42.52" height="42.52" fill="#6f9a83"/><polygon points="42.52,340.16 85.04,340.16 42.52,382.68" fill="#67947c"/><rect x="0" y="382.68" width="42.52" height="42.52" fill="#f6fdef"/><polygon points="0,382.68 42.52,382.68 0,425.2" fill="#aaed68"/><rect x="42.52" y="382.68" width="42.52" height="42.52" fill="#e3ebe7"/><polygon points="42.52,382.68 85.04,382.68 42.52,425.2" fill="#1c5f3b"/><rect x="85.04" y="340.16" width="85.04" height="85.04" fill="#cef4a8"/><polygon points="85.04,340.16 170.08,340.16 170.08,425.20000000000005" fill="#e1f8c9"/><rect x="170.08" y="340.16" width="85.04" height="85.04" fill="#ffffff"/><rect x="170.08" y="340.16" width="42.52" height="42.52" fill="#f9fef5"/><polygon points="212.60000000000002,340.16 212.60000000000002,382.68 170.08,382.68" fill="#f1fce7"/><rect x="212.6" y="340.16" width="42.52" height="42.52" fill="#cbdbd3"/><polygon points="255.12,340.16 255.12,382.68 212.6,382.68" fill="#a2eb5a"/><rect x="170.08" y="382.68" width="42.52" height="42.52" fill="#0f5530"/><polygon points="170.08,382.68 212.60000000000002,382.68 212.60000000000002,425.2" fill="#7ae212"/><rect x="212.6" y="382.68" width="42.52" height="42.52" fill="#ceddd5"/><polygon points="212.6,382.68 255.12,425.2 212.6,425.2" fill="#357050"/><rect x="255.12" y="340.16" width="85.04" height="85.04" fill="#a1bdae"/><polygon points="255.12,340.16 340.16,340.16 255.12,425.20000000000005" fill="#5f8e75"/><rect x="340.16" y="340.16" width="85.04" height="85.04" fill="#ffffff"/><rect x="340.16" y="340.16" width="42.52" height="42.52" fill="#97e846"/><polygon points="340.16,340.16 382.68,340.16 340.16,382.68" fill="#115732"/><rect x="382.68" y="340.16" width="42.52" height="42.52" fill="#fafef6"/><polygon points="382.68,340.16 425.2,340.16 425.2,382.68" fill="#377253"/><rect x="340.16" y="382.68" width="42.52" height="42.52" fill="#e3ebe7"/><polygon points="340.16,382.68 382.68,425.2 340.16,425.2" fill="#94e840"/><rect x="382.68" y="382.68" width="42.52" height="42.52" fill="#79e210"/><polygon points="382.68,382.68 425.2,425.2 382.68,425.2" fill="#abed69"/><rect x="425.20000000000005" y="340.16" width="85.04" height="85.04" fill="#ffffff"/><rect x="425.2" y="340.16" width="42.52" height="42.52" fill="#fdfefd"/><polygon points="467.71999999999997,340.16 467.71999999999997,382.68 425.2,382.68" fill="#2a6847"/><rect x="467.72" y="340.16" width="42.52" height="42.52" fill="#c0f18e"/><polygon points="467.72,340.16 510.24,340.16 510.24,382.68" fill="#c9f39f"/><rect x="425.2" y="382.68" width="42.52" height="42.52" fill="#f1fce6"/><polygon points="425.2,382.68 467.71999999999997,425.2 425.2,425.2" fill="#d6e2db"/><rect x="467.72" y="382.68" width="42.52" height="42.52" fill="#edf2ef"/><polygon points="510.24,382.68 510.24,425.2 467.72,425.2" fill="#edfbdf"/><rect x="510.24" y="340.16" width="85.04" height="85.04" fill="#ffffff"/><rect x="510.24" y="340.16" width="42.52" height="42.52" fill="#daf7be"/><polygon points="510.24,340.16 552.76,340.16 510.24,382.68" fill="#fdfffb"/><rect x="552.76" y="340.16" width="42.52" height="42.52" fill="#5b8b71"/><polygon points="552.76,340.16 595.28,340.16 552.76,382.68" fill="#97e946"/><rect x="510.24" y="382.68" width="42.52" height="42.52" fill="#7fe31a"/><polygon points="510.24,382.68 552.76,382.68 510.24,425.2" fill="#def8c4"/><rect x="552.76" y="382.68" width="42.52" height="42.52" fill="#f6fdef"/><polygon points="552.76,382.68 595.28,382.68 595.28,425.2" fill="#abc3b6"/><rect x="595.2800000000001" y="340.16" width="85.04" height="85.04" fill="#ffffff"/><rect x="595.28" y="340.16" width="42.52" height="42.52" fill="#c4f296"/><polygon points="595.28,340.16 637.8,340.16 637.8,382.68" fill="#88ab99"/><rect x="637.8" y="340.16" width="42.52" height="42.52" fill="#cff5aa"/><polygon points="637.8,340.16 680.3199999999999,340.16 637.8,382.68" fill="#236441"/><rect x="595.28" y="382.68" width="42.52" height="42.52" fill="#8fe738"/><polygon points="595.28,382.68 637.8,382.68 637.8,425.2" fill="#296846"/><rect x="637.8" y="382.68" width="42.52" height="42.52" fill="#71e001"/><polygon points="680.3199999999999,382.68 680.3199999999999,425.2 637.8,425.2" fill="#185c38"/><rect x="680.32" y="340.16" width="85.04" height="85.04" fill="#e1f8c9"/><polygon points="680.32,340.16 765.36,425.20000000000005 680.32,425.20000000000005" fill="#326e4e"/></g></svg>